<?xml version="1.0" encoding="UTF-8"?>
<svg version="1.1" xmlns="http://www.w3.org/2000/svg" width="1000" height="1000">
<path d="M0 0 C330 0 660 0 1000 0 C1000 330 1000 660 1000 1000 C670 1000 340 1000 0 1000 C0 670 0 340 0 0 Z " fill="#FEFEFE" transform="translate(0,0)"/>
<path d="M0 0 C1.12921875 0.30550781 2.2584375 0.61101562 3.421875 0.92578125 C28.7582357 7.89041434 28.7582357 7.89041434 39.35546875 13.61328125 C41.44641284 14.70971427 43.52335463 15.70499817 45.67578125 16.66796875 C63.044227 24.46507693 78.94815952 34.3750306 94 46 C94.62165039 46.47356934 95.24330078 46.94713867 95.88378906 47.43505859 C102.03864095 52.12454467 108.11734503 56.77788829 113.44921875 62.4140625 C115.10886941 64.11133749 116.86569826 65.60373989 118.6875 67.125 C129.09439117 76.14564505 137.75544587 87.02676639 146 98 C146.41459473 98.5470459 146.82918945 99.0940918 147.25634766 99.65771484 C175.7816458 137.52185416 193.35919159 183.00060803 199 230 C199.0928125 230.73637695 199.185625 231.47275391 199.28125 232.23144531 C202.59731571 261.21149103 201.24775504 296.25673487 192 324 C192.66 324 193.32 324 194 324 C197.7127014 329.67412856 199.06794575 334.79103239 200.1875 341.4375 C200.4340332 342.79198242 200.4340332 342.79198242 200.68554688 344.17382812 C202.15595632 352.39502424 203.15513206 360.40852734 203.203125 368.7578125 C203.21009399 369.57522415 203.21706299 370.3926358 203.22424316 371.2348175 C203.24157084 373.86493111 203.24796503 376.49483165 203.25 379.125 C203.25100708 380.02227814 203.25201416 380.91955627 203.25305176 381.84402466 C203.24272664 395.42930007 202.76027844 408.65388193 200 422 C199.83951172 422.7832666 199.67902344 423.5665332 199.51367188 424.37353516 C198.47842227 429.2889409 197.29066042 434.14565374 196 439 C195.75378906 439.93972656 195.50757813 440.87945313 195.25390625 441.84765625 C193.3973565 448.46620367 190.79139593 454.72633766 188 461 C187.69320313 461.69270996 187.38640625 462.38541992 187.0703125 463.09912109 C181.6014472 475.34312621 175.24766512 486.7279672 168 498 C167.49452637 498.78987305 166.98905273 499.57974609 166.46826172 500.39355469 C163.25226341 505.40958948 159.99847245 510.39964313 156.72216797 515.37646484 C154.93096056 518.10517407 153.15480355 520.84333814 151.37890625 523.58203125 C146.10251658 531.66900284 140.98974303 539.45512759 134.2734375 546.43359375 C129.46709636 551.85930874 125.51057424 557.98533457 121.41064453 563.95166016 C120.1577714 565.77090653 118.89345812 567.58108002 117.62109375 569.38671875 C115.38643956 572.57279995 113.18192267 575.77770864 111 579 C110.58427734 579.61214355 110.16855469 580.22428711 109.74023438 580.85498047 C99.39617508 596.18334389 89.21957605 612.51342273 83 630 C82.56171875 631.22074219 82.1234375 632.44148437 81.671875 633.69921875 C73.04368026 658.31648879 72.5412743 684.80370112 79 710 C79.19787109 710.77811035 79.39574219 711.5562207 79.59960938 712.35791016 C81.67446334 720.32662518 84.14374047 727.64218948 88.046875 734.9296875 C89.52950427 738.15015271 89.59941336 740.53672282 89 744 C86.74665796 748.33976986 84.54633071 751.09688482 80 753 C75.66181466 753.63100878 73.72088832 753.47332009 70.03125 751.05078125 C66.15802378 747.64185916 64.67936692 743.4411575 62.9375 738.6875 C62.42944824 737.34800293 62.42944824 737.34800293 61.91113281 735.98144531 C60.91767821 733.32876052 59.95500861 730.66672926 59 728 C58.61448975 726.95610107 58.61448975 726.95610107 58.22119141 725.89111328 C44.06494951 687.18556394 48.16436001 646.35786343 65.26757812 609.48950195 C78.66646419 581.39376567 96.34408328 555.52719338 115.1875 530.8125 C120.68499863 523.57866448 125.64325357 516.07220354 130.49023438 508.39111328 C132.74861621 504.81436819 135.02445768 501.24878876 137.29833984 497.68188477 C138.51469286 495.77119284 139.72856791 493.85892116 140.93994141 491.94506836 C143.4319222 488.00990983 145.92243167 484.08030068 148.5390625 480.2265625 C158.91556442 464.79014092 167.46729998 446.99960043 171.5625 428.8125 C171.75779297 427.98169922 171.95308594 427.15089844 172.15429688 426.29492188 C172.56485986 424.5229481 172.96269118 422.74798964 173.34960938 420.97070312 C173.81172937 418.85993881 174.30019831 416.75486753 174.80664062 414.65429688 C177.14663819 404.31050718 177.4701417 394.4384143 177.375 383.875 C177.37234131 383.02159027 177.36968262 382.16818054 177.36694336 381.28890991 C177.32412423 369.57582078 176.7930697 358.15920501 174.65625 346.61328125 C174 343 174 343 174 339 C145.45716831 324.16616382 111.91136699 320.49403688 80.4375 316.75 C79.38884766 316.62521271 78.34019531 316.50042542 77.25976562 316.37185669 C54.41713563 313.67900634 31.58285212 311.75198184 8.625 310.375 C6.41274225 310.23988045 4.20050255 310.10446509 1.98828125 309.96875 C-3.34094377 309.6424418 -8.67037547 309.31971335 -14 309 C-10.86588317 306.91058878 -8.42370212 306.18237983 -4.8125 305.1875 C3.32694193 302.74295125 9.34695691 299.43818797 15 293 C15.7425 291.39125 15.7425 291.39125 16.5 289.75 C19.66243542 286.27132104 21.15788136 286.47288778 25.75 286.125 C27.83261356 286.05619118 29.91625874 286.00602237 32 286 C29.03 284.35 26.06 282.7 23 281 C23.04640625 279.74445313 23.0928125 278.48890625 23.140625 277.1953125 C23.47233865 264.56875229 22.78130275 255.71084299 14.171875 245.88671875 C8.19850821 240.69762493 1.94134759 238.01570003 -5.625 235.9375 C-6.50164307 235.68637451 -7.37828613 235.43524902 -8.28149414 235.17651367 C-10.03955223 234.67405047 -11.79905494 234.17661061 -13.56005859 233.68457031 C-15.69773882 233.08480492 -17.82847606 232.46715278 -19.95703125 231.8359375 C-26.64455881 229.86945914 -33.34396166 228.17216459 -40.16015625 226.7109375 C-42.99005349 226.00249005 -45.39766269 225.32479778 -48 224 C-49.09912109 221.98242188 -49.09912109 221.98242188 -49.7734375 219.46875 C-50.03713135 218.52531738 -50.3008252 217.58188477 -50.57250977 216.60986328 C-50.83733154 215.5836084 -51.10215332 214.55735352 -51.375 213.5 C-51.66753662 212.44151855 -51.96007324 211.38303711 -52.26147461 210.29248047 C-53.84071482 204.53805806 -55.31960888 198.75883541 -56.79296875 192.9765625 C-57.08961426 191.83123047 -57.38625977 190.68589844 -57.69189453 189.50585938 C-58.25716319 187.31072745 -58.80723457 185.11160508 -59.33935547 182.90820312 C-62.19626454 171.73498546 -66.91607071 163.03435134 -77 157 C-85.52190424 152.44145757 -94.56585931 151.75891126 -104 153 C-108.39499724 154.48472971 -112.12840049 156.46154561 -116 159 C-116.61359375 159.38285156 -117.2271875 159.76570312 -117.859375 160.16015625 C-125.11149769 165.37495582 -128.71152908 174.68923717 -131 183 C-134.31894962 182.38266144 -136.39741696 181.20453812 -139.08984375 179.19140625 C-139.86755127 178.61430908 -140.64525879 178.03721191 -141.4465332 177.44262695 C-142.26855225 176.82218506 -143.09057129 176.20174316 -143.9375 175.5625 C-144.78852295 174.92723389 -145.6395459 174.29196777 -146.51635742 173.63745117 C-149.01708212 171.7663357 -151.51022876 169.88565835 -154 168 C-154.63776367 167.51724609 -155.27552734 167.03449219 -155.93261719 166.53710938 C-159.64376844 163.71942254 -163.32667759 160.86675852 -167 158 C-167.85585693 157.33339355 -167.85585693 157.33339355 -168.72900391 156.65332031 C-179.25760335 148.4475016 -189.63332216 140.08627249 -199.75 131.375 C-200.36415771 130.8485791 -200.97831543 130.3221582 -201.61108398 129.77978516 C-205.3559228 126.53530164 -208.90604123 123.16187182 -212.36352539 119.61230469 C-214.06714539 117.93384632 -215.84825449 116.40257366 -217.6875 114.875 C-230.22638633 103.98852504 -245.17703243 88.34814094 -248.47265625 71.59765625 C-248.88061484 65.47827737 -246.57400077 61.76842072 -243 57 C-242.58492188 56.32582031 -242.16984375 55.65164062 -241.7421875 54.95703125 C-233.11554341 42.01706511 -216.38289613 33.41553952 -203 26 C-202.16903809 25.5373877 -201.33807617 25.07477539 -200.48193359 24.59814453 C-140.05862718 -8.73174608 -66.72714998 -19.36984804 0 0 Z " fill="#030303" transform="translate(648,128)"/>
<path d="M0 0 C0.84369141 0.22478027 1.68738281 0.44956055 2.55664062 0.68115234 C10.29655419 2.75806069 17.77832438 5.04663952 25.0078125 8.5625 C27.38318694 9.70367205 29.75953115 10.7732881 32.1796875 11.8125 C41.84203906 15.96856119 51.06335189 20.41723163 60 26 C60.68529785 26.42764648 61.3705957 26.85529297 62.07666016 27.29589844 C73.7815947 34.68217866 84.56705875 42.91400999 95 52 C95.58620117 52.51030762 96.17240234 53.02061523 96.77636719 53.54638672 C137.30782729 89.17882686 164.45764929 138.7179705 174.375 191.625 C174.50255676 192.30186859 174.63011353 192.97873718 174.76153564 193.67611694 C177.21932178 206.8832553 178.18684132 219.77163988 178.18530273 233.18041992 C178.18748663 235.29952184 178.20571812 237.41809895 178.22460938 239.53710938 C178.2614673 248.85811375 177.47270497 257.79079616 176 267 C172.57326985 264.18664772 169.40482903 261.48787089 166.5625 258.0625 C164.03131499 255.03742523 161.40702872 252.64614427 158.4140625 250.1015625 C156.05876711 248.05115971 153.78221032 245.93000346 151.51049805 243.7878418 C145.48078009 238.11816074 139.22978332 232.90465171 132.67578125 227.85546875 C128.6785498 224.77244595 124.77894456 221.57474176 120.875 218.375 C114.37735718 213.06906797 107.74603217 207.9873059 101 203 C99.77766416 202.08073095 98.55636609 201.16008088 97.3359375 200.23828125 C87.32654533 192.68116512 77.20809849 185.28630054 67 178 C66.24831543 177.46181641 65.49663086 176.92363281 64.72216797 176.36914062 C41.77871809 159.98026284 18.01092392 144.76875304 -6 130 C-6.96099609 129.40880371 -7.92199219 128.81760742 -8.91210938 128.20849609 C-69.22781341 91.17271466 -132.11571342 53.31843083 -200 32 C-200 31.01 -200 30.02 -200 29 C-178.2475376 16.33294691 -156.26549149 5.17332945 -131.75 -1.0625 C-130.74493408 -1.31999023 -129.73986816 -1.57748047 -128.7043457 -1.84277344 C-120.84305954 -3.83252555 -113.00687113 -5.68439876 -105 -7 C-103.78441406 -7.20496094 -102.56882812 -7.40992188 -101.31640625 -7.62109375 C-67.75101626 -12.59420421 -32.49477562 -8.84402144 0 0 Z " fill="#FCFCFC" transform="translate(646,152)"/>
<path d="M0 0 C1.19166436 1.65508939 2.37253034 3.3211281 3.453125 5.05078125 C10.08330469 13.40547737 21.90850237 15.53627462 31.7578125 17.5 C33.85216202 17.93947006 35.92844877 18.46324179 38 19 C38.33 19.66 38.66 20.32 39 21 C38.13648926 21.04487549 37.27297852 21.08975098 36.38330078 21.13598633 C18.64284432 22.07902794 1.02524448 23.29420438 -16.60400391 25.56591797 C-19.65528708 25.95593821 -22.70808 26.33071307 -25.76199341 26.69949341 C-41.28355763 28.57718412 -56.71827812 30.64446027 -72 34 C-73.53575684 34.33668701 -73.53575684 34.33668701 -75.10253906 34.68017578 C-95.63463754 38.67216946 -95.63463754 38.67216946 -114 48 C-114.66 48 -115.32 48 -116 48 C-115.90557717 52.80174622 -115.79930112 57.60303992 -115.68261719 62.40429688 C-115.64462489 64.03345799 -115.6097235 65.66269452 -115.578125 67.29199219 C-115.35452683 79.14189889 -115.35452683 79.14189889 -113.45849609 90.81640625 C-108.65756136 113.68092185 -119.95701013 134.48932027 -131.43359375 153.41381836 C-132.95332841 155.92294387 -134.44659817 158.4463231 -135.9375 160.97265625 C-142.6486601 172.19466765 -149.9909143 182.25948969 -158.47851562 192.18847656 C-164.72237787 199.62260009 -171.94134268 208.31347557 -174 218 C-172.70906867 218.43966502 -171.41719164 218.87655299 -170.125 219.3125 C-169.30128906 219.5909375 -168.47757812 219.869375 -167.62890625 220.15625 C-165.94119697 220.69792193 -164.24053708 221.20156362 -162.52734375 221.65625 C-155.94518624 223.40871032 -150.62917815 226.18228748 -145 230 C-144.39929688 230.4021875 -143.79859375 230.804375 -143.1796875 231.21875 C-138.00654467 235.0661125 -135.54616362 239.57235245 -134.546875 245.84375 C-134.01987492 255.52138784 -137.24417294 263.30607316 -141 272 C-141.56704509 273.34087585 -142.13346111 274.68201793 -142.69921875 276.0234375 C-143.71754804 278.42551799 -144.753066 280.81736051 -145.80078125 283.20703125 C-147.04774284 286.00369833 -147.04774284 286.00369833 -148 289 C-147.09378906 288.96519531 -146.18757813 288.93039062 -145.25390625 288.89453125 C-129.69026549 288.54867257 -129.69026549 288.54867257 -123.34375 293.21875 C-120.52039699 296.04210301 -119.66205174 298.64965071 -119.5 302.5 C-119.83557153 308.204716 -122.23421438 312.74302496 -126 317 C-126.66 317 -127.32 317 -128 317 C-128 317.66 -128 318.32 -128 319 C-126.96875 319.185625 -125.9375 319.37125 -124.875 319.5625 C-120.17982184 320.89581631 -117.59483802 323.99125644 -115 328 C-112.48145071 332.67852546 -112.69554525 337.25797845 -112.75 342.4375 C-112.75386719 343.33637939 -112.75773437 344.23525879 -112.76171875 345.16137695 C-112.82532411 350.09918437 -113.15109869 354.81238107 -114 359.6875 C-115.09466885 366.35070172 -115.29614015 372.939561 -115.375 379.6875 C-115.40078125 380.73317139 -115.4265625 381.77884277 -115.453125 382.85620117 C-115.47271188 390.61077036 -114.56083907 398.88805448 -109.29003906 404.97460938 C-100.58891432 412.94596237 -91.27902825 413.46185676 -80 413 C-61.74999382 411.52141154 -43.67362713 406.60483745 -26 402 C-24.70313447 401.66793176 -23.40625938 401.33590088 -22.109375 401.00390625 C-10.00948045 397.85646404 1.54580419 394.01121067 13 389 C13.7115625 388.68933594 14.423125 388.37867188 15.15625 388.05859375 C43.31882045 377.31658041 43.31882045 377.31658041 68 361 C73.7028845 360.44089368 76.57735331 361.38147089 81 365 C84.87762632 369.45373419 85.27222151 374.19125011 86.1875 379.875 C86.44575562 381.46683105 86.44575562 381.46683105 86.70922852 383.09082031 C88.89324852 397.64807478 89.93190392 412.90580904 85 427 C84.7215625 427.92683594 84.443125 428.85367187 84.15625 429.80859375 C81.9106059 436.78751357 78.51734056 442.26020788 74 448 C73.44183594 448.72316406 72.88367188 449.44632813 72.30859375 450.19140625 C67.94251398 455.5299771 62.73671402 460.79853422 55.859375 462.54296875 C52.00014289 462.81547178 49.50112941 461.96890679 46.5625 459.625 C43.2895902 456.27226313 42.81732824 454.74515457 42.6875 450.1875 C42.73242748 446.71310801 42.85414573 445.25244008 44.625 442.1875 C47 440 47 440 49.875 437.75 C58.09970895 431.1077667 61.86947034 421.20559953 63 411 C63.11012455 407.68590703 63.09527603 404.37792159 63.0625 401.0625 C63.05573242 399.75055664 63.05573242 399.75055664 63.04882812 398.41210938 C63.03714834 396.27470953 63.01921689 394.13734537 63 392 C62.15824219 392.43828125 61.31648438 392.8765625 60.44921875 393.328125 C47.22461269 400.11869418 33.63379882 406.08470125 20 412 C18.856521 412.49959229 18.856521 412.49959229 17.68994141 413.00927734 C-10.43474946 425.20344529 -44.24982485 433.79642824 -74.8984375 435.7890625 C-77.19045549 435.94131747 -77.19045549 435.94131747 -80 437 C-96.87168506 438.01660211 -110.24080042 434.85097824 -123.8125 424.1875 C-133.53771609 415.17215369 -139.49505566 401.93737246 -140.10644531 388.69433594 C-140.17108994 385.96181766 -140.18959893 383.23327948 -140.1875 380.5 C-140.18741943 379.51966797 -140.18733887 378.53933594 -140.18725586 377.52929688 C-140.13588244 370.95782596 -139.61792711 364.75377869 -138.51171875 358.2734375 C-137.61724493 352.55153626 -137.33366095 346.77760275 -137 341 C-137.97839844 340.85304688 -137.97839844 340.85304688 -138.9765625 340.703125 C-147.07562898 339.31744401 -152.123695 336.86294777 -157 330 C-159.21264666 325.57470667 -158.29045294 320.03473859 -157 315.4375 C-156.505 314.2309375 -156.505 314.2309375 -156 313 C-156.88751953 312.45472656 -156.88751953 312.45472656 -157.79296875 311.8984375 C-164.48889162 307.63838869 -169.38764842 303.75789257 -172 296 C-174.01497717 282.26328065 -167.710376 270.43193379 -162.03515625 258.3515625 C-160.68426308 255.28274103 -159.79517762 252.25299934 -159 249 C-165.05176201 246.94472533 -165.05176201 246.94472533 -171.17578125 245.12109375 C-182.06877157 242.0618403 -190.08076868 237.93226951 -196 228 C-199.42604024 220.68073221 -198.61484541 214.04934928 -195.9375 206.625 C-190.42988024 193.3852344 -181.24649002 181.6368619 -171.5 171.1875 C-162.57206259 161.09871966 -156.12632436 148.66968852 -149.5625 137 C-148.97138428 135.95013916 -148.38026855 134.90027832 -147.77124023 133.81860352 C-139.60805968 119.12534613 -135.2099826 107.69262481 -138.48828125 90.859375 C-140.20458469 81.26903825 -140.12085146 71.52482453 -140.1875 61.8125 C-140.20055176 60.70769287 -140.21360352 59.60288574 -140.22705078 58.46459961 C-140.23726796 48.72689448 -140.17507983 40.08302187 -133.09375 32.87109375 C-105.03258425 7.7940445 -54.45557167 5.37566255 -18.625 1.3125 C-17.46444092 1.18077393 -16.30388184 1.04904785 -15.1081543 0.91333008 C-14.012854 0.79368896 -12.91755371 0.67404785 -11.7890625 0.55078125 C-10.81662598 0.44419189 -9.84418945 0.33760254 -8.84228516 0.2277832 C-2.95331773 -0.24416377 -2.95331773 -0.24416377 0 0 Z " fill="#040404" transform="translate(442,419)"/>
<path d="M0 0 C0.83144531 -0.03996094 1.66289063 -0.07992188 2.51953125 -0.12109375 C6.28601611 0.66749678 8.70902445 2.59897098 11.1875 5.4375 C12.69140625 8.5390625 12.69140625 8.5390625 13.75 12.0625 C13.94779053 12.70711182 14.14558105 13.35172363 14.34936523 14.01586914 C14.99129555 16.14914249 15.59459421 18.29010476 16.1875 20.4375 C16.39761719 21.19498535 16.60773438 21.9524707 16.82421875 22.73291016 C19.30543425 31.77618877 21.56117095 40.87716846 23.80004883 49.98291016 C24.9332047 54.54942897 26.22355525 59.04360691 27.671875 63.51953125 C28.1875 65.4375 28.1875 65.4375 28.1875 68.4375 C28.84973068 68.5482486 29.51196136 68.65899719 30.19425964 68.77310181 C37.082425 69.96916186 43.80058144 71.52436289 50.55078125 73.3359375 C51.58639694 73.61216949 52.62201263 73.88840149 53.68901062 74.17300415 C55.85851425 74.7538458 58.02735784 75.33715798 60.19555664 75.92285156 C63.50572034 76.81404008 66.82004422 77.68843851 70.13476562 78.5625 C72.25287975 79.13178814 74.37072809 79.70206628 76.48828125 80.2734375 C77.47274734 80.53087738 78.45721344 80.78831726 79.47151184 81.05355835 C85.82504885 82.79478309 90.46280539 84.71280539 95.1875 89.4375 C95.85914361 94.28739168 95.88365978 98.87942812 93.875 103.375 C85.96704158 109.44389832 74.90609872 110.83464571 65.39453125 113.1484375 C60.50804859 114.34397939 55.65662643 115.64381366 50.8125 117 C49.81754517 117.27831665 49.81754517 117.27831665 48.80249023 117.56225586 C47.4632163 117.93917532 46.12845387 118.33251992 44.7988739 118.74232483 C42.1875 119.4375 42.1875 119.4375 38.84701538 119.95593262 C31.53334747 121.27809548 31.53334747 121.27809548 26.33535767 126.16233826 C25.02475074 129.8039164 24.11399997 133.43874252 23.3125 137.21484375 C22.97169053 138.58869408 22.62481984 139.96105357 22.2722168 141.33192444 C21.36065075 144.93062259 20.51906365 148.5418668 19.69537354 152.16156006 C18.36663253 157.95254584 16.93790679 163.71924089 15.49871826 169.48358345 C15.00880998 171.49124024 14.55231351 173.50430142 14.10009766 175.52073669 C11.6589399 185.69249151 11.6589399 185.69249151 8.11157227 188.76538086 C5.15268834 190.45740691 3.50313952 191.11603628 0.125 191.0625 C-0.69097656 191.07539063 -1.50695312 191.08828125 -2.34765625 191.1015625 C-6.09258795 190.09262686 -7.44089459 188.50549852 -9.8125 185.4375 C-11.22973133 182.12794928 -12.14234389 178.7261453 -13.0625 175.25 C-13.34625488 174.2300293 -13.63000977 173.21005859 -13.92236328 172.15917969 C-14.72457719 169.25131505 -15.50933252 166.33942669 -16.28405762 163.4241333 C-16.84942129 161.29869761 -17.41903304 159.17442945 -17.98925781 157.05029297 C-24.57865695 132.48018705 -24.57865695 132.48018705 -26.8125 123.4375 C-27.8334375 123.22996094 -28.854375 123.02242188 -29.90625 122.80859375 C-40.22340704 120.64456011 -50.30611399 117.94560942 -60.3984375 114.90014648 C-66.16858871 113.16649413 -71.9184541 111.67991989 -77.8125 110.4375 C-84.13937133 108.95838008 -88.59978133 107.73737187 -92.8125 102.4375 C-94.67580667 98.71088666 -94.36940611 94.49587327 -93.8125 90.4375 C-88.63225043 83.0595688 -78.87101536 81.48333639 -70.625 79.25 C-68.41121206 78.64152029 -66.19768056 78.032107 -63.984375 77.421875 C-62.24510742 76.94331055 -62.24510742 76.94331055 -60.47070312 76.45507812 C-56.64631363 75.39127304 -52.82986195 74.30263378 -49.015625 73.203125 C-48.37521774 73.0187236 -47.73481049 72.8343222 -47.07499695 72.64433289 C-43.94147655 71.74148196 -40.80882605 70.83572097 -37.67700195 69.92700195 C-36.54738037 69.60175537 -35.41775879 69.27650879 -34.25390625 68.94140625 C-33.25045166 68.65080322 -32.24699707 68.3602002 -31.21313477 68.06079102 C-28.8125 67.4375 -28.8125 67.4375 -26.8125 67.4375 C-26.70977783 66.35936035 -26.60705566 65.2812207 -26.5012207 64.17041016 C-25.79347927 58.54807585 -24.28475133 53.16804112 -22.79296875 47.7109375 C-22.49312576 46.60448883 -22.19328278 45.49804016 -21.88435364 44.35806274 C-21.25093373 42.02925417 -20.61453991 39.70125267 -19.9753418 37.37402344 C-19.00211098 33.82020838 -18.04659247 30.26193092 -17.09179688 26.703125 C-16.47243235 24.43460119 -15.85202481 22.16636183 -15.23046875 19.8984375 C-14.94801804 18.8389389 -14.66556732 17.77944031 -14.3745575 16.68783569 C-12.12433412 8.59967402 -9.77831256 0.25534764 0 0 Z " fill="#020202" transform="translate(552.8125,302.5625)"/>
<path d="M0 0 C3.71954739 1.65313217 5.91312707 3.51937261 8 7 C8.57296034 15.82794872 6.1295331 24.75195755 4 33.25 C0.06927 45.31857137 0.06927 45.31857137 1.15234375 57.1640625 C1.74144531 57.64617187 2.33054687 58.12828125 2.9375 58.625 C3.59105469 59.18832031 4.24460937 59.75164062 4.91796875 60.33203125 C5.94857422 61.15767578 5.94857422 61.15767578 7 62 C8.25305826 63.10069479 9.50301501 64.20492948 10.75 65.3125 C11.41257812 65.88355469 12.07515625 66.45460938 12.7578125 67.04296875 C16.37555103 70.20061162 19.89954018 73.4609175 23.44140625 76.703125 C25.44129759 78.4984473 27.45766557 80.2076006 29.5625 81.875 C32.91479815 84.79751634 33.80529966 86.50729736 34.375 90.875 C33.78616621 95.78194828 31.51211338 98.70390282 27.8125 101.875 C21.29684719 104.48126113 14.20550855 102.87869364 7.60546875 101.21484375 C6.8508284 101.03490372 6.09618805 100.85496368 5.31867981 100.66957092 C2.93919294 100.10176703 0.56313438 99.52119692 -1.8125 98.9375 C-4.96239756 98.16515868 -8.11495394 97.40530984 -11.26953125 96.65234375 C-11.98623489 96.47219223 -12.70293854 96.29204071 -13.44136047 96.10643005 C-18.28540699 94.89478404 -18.28540699 94.89478404 -23 96 C-24.89315389 97.81197731 -26.59924516 99.59459224 -28.3125 101.5625 C-28.80032959 102.10898193 -29.28815918 102.65546387 -29.79077148 103.21850586 C-31.20294026 104.80459511 -32.60335284 106.40024224 -34 108 C-34.63421875 108.721875 -35.2684375 109.44375 -35.921875 110.1875 C-37.00901138 111.42994158 -38.09496459 112.67341951 -39.1796875 113.91796875 C-41.50615439 116.57892766 -43.83647749 119.23572952 -46.1875 121.875 C-47.00605469 122.80054688 -47.82460938 123.72609375 -48.66796875 124.6796875 C-51.8886943 127.8842285 -53.89165787 128.85632602 -58.375 129.4375 C-63.23844407 128.85053261 -64.60199844 127.47702486 -68 124 C-70.72206347 120.41182542 -70.38645107 116.31284188 -70 112 C-69.02779492 106.97829482 -67.80025334 102.02375267 -66.5625 97.0625 C-65.32268719 92.05263169 -64.13132314 87.03581614 -63 82 C-62.77820068 81.10474609 -62.55640137 80.20949219 -62.32788086 79.28710938 C-61.73872725 76.27623272 -61.4461029 73.88912189 -63.11499023 71.21020508 C-64.78283074 69.41672492 -66.52737653 67.9070608 -68.4375 66.375 C-69.08549561 65.81723877 -69.73349121 65.25947754 -70.40112305 64.68481445 C-72.24903125 63.09967052 -74.12228265 61.54956742 -76 60 C-77.44193307 58.73419882 -78.88054101 57.46457363 -80.3125 56.1875 C-82.33668921 54.42999663 -84.3701395 52.68445158 -86.41015625 50.9453125 C-87.63025391 49.88957031 -87.63025391 49.88957031 -88.875 48.8125 C-89.61492187 48.17957031 -90.35484375 47.54664063 -91.1171875 46.89453125 C-94.26726803 43.72484441 -95.29806515 41.00164071 -95.375 36.5625 C-95.29760081 33.20116382 -95.03189393 32.05353625 -93.25 29.0625 C-89.46381214 25.59182779 -86.81954784 24.54424739 -81.56640625 24.6796875 C-77.00827492 25.24858669 -72.64288144 26.60432044 -68.23046875 27.84375 C-63.66315234 29.11623616 -59.06151795 30.20473481 -54.4375 31.25 C-53.68807129 31.42499023 -52.93864258 31.59998047 -52.16650391 31.78027344 C-48.06744343 32.69691373 -44.21894098 33.46604581 -40 33 C-38.05354442 31.81199818 -38.05354442 31.81199818 -36.5625 30 C-35.96953125 29.35289062 -35.3765625 28.70578125 -34.765625 28.0390625 C-34.18296875 27.36617188 -33.6003125 26.69328125 -33 26 C-32.47921875 25.40960938 -31.9584375 24.81921875 -31.421875 24.2109375 C-30.30551533 22.9374204 -29.19385269 21.65977652 -28.0859375 20.37890625 C-25.40620794 17.32281017 -22.68056066 14.31175973 -19.9375 11.3125 C-19.19560425 10.49241455 -19.19560425 10.49241455 -18.4387207 9.65576172 C-8.57209073 -1.08851946 -8.57209073 -1.08851946 0 0 Z " fill="#030303" transform="translate(388,293)"/>
<path d="M0 0 C1.28831879 3.86495638 0.51662311 5.90456706 -0.43359375 9.85546875 C-0.59038101 10.51710526 -0.74716827 11.17874176 -0.90870667 11.86042786 C-1.41076132 13.9713384 -1.92396835 16.07935533 -2.4375 18.1875 C-2.78003527 19.61896413 -3.12184104 21.05060304 -3.46289062 22.48242188 C-4.30014109 25.99034809 -5.1474136 29.49576556 -6 33 C-5.41283203 33.26570801 -4.82566406 33.53141602 -4.22070312 33.80517578 C-1.94086744 35.0318156 -0.3447702 36.34244746 1.53125 38.1171875 C2.49998047 39.02791016 2.49998047 39.02791016 3.48828125 39.95703125 C4.15214844 40.58996094 4.81601562 41.22289062 5.5 41.875 C6.16386719 42.50019531 6.82773437 43.12539062 7.51171875 43.76953125 C10.72193651 46.80033565 13.90164308 49.85421925 17 53 C9.94632283 52.33257039 3.27775368 51.02431131 -3.6015625 49.37304688 C-9.24662897 47.95106303 -9.24662897 47.95106303 -15 48 C-16.73227644 49.30693556 -16.73227644 49.30693556 -18.125 51.25 C-21.24832989 55.09038576 -24.47006821 58.78823275 -27.8125 62.4375 C-28.53300537 63.23559082 -28.53300537 63.23559082 -29.26806641 64.04980469 C-32.76431168 67.88215584 -32.76431168 67.88215584 -35 69 C-34.3381049 61.93039703 -33.01023137 55.27588931 -31.28515625 48.3984375 C-29.88897627 42.68555562 -29.88897627 42.68555562 -31 37 C-32.43987535 35.25540339 -32.43987535 35.25540339 -34.375 33.8125 C-37.97925713 30.85465855 -41.45141044 27.78902108 -44.875 24.625 C-48.18552114 21.44853361 -48.18552114 21.44853361 -52 19 C-52 18.34 -52 17.68 -52 17 C-50.77023437 17.27714844 -49.54046875 17.55429688 -48.2734375 17.83984375 C-46.64064416 18.20581467 -45.00783059 18.57169532 -43.375 18.9375 C-42.56675781 19.11990234 -41.75851562 19.30230469 -40.92578125 19.49023438 C-36.63054444 20.45055155 -32.35175332 21.32704846 -28 22 C-26.1128125 22.309375 -26.1128125 22.309375 -24.1875 22.625 C-20.08336887 22.57800613 -18.29441087 20.82775872 -15.4375 18 C-13.93594887 16.35347152 -12.45624571 14.68673064 -11 13 C-10.34515625 12.27296875 -9.6903125 11.5459375 -9.015625 10.796875 C-5.88776096 7.29473663 -2.89123932 3.70078633 0 0 Z " fill="#080808" transform="translate(309,167)"/>
<path d="M0 0 C0.13277344 0.71027344 0.26554687 1.42054688 0.40234375 2.15234375 C0.57894531 3.07144531 0.75554688 3.99054687 0.9375 4.9375 C1.11152344 5.85402344 1.28554688 6.77054688 1.46484375 7.71484375 C1.77714988 9.95289844 1.77714988 9.95289844 3 11 C3.1875 13.9375 3.1875 13.9375 3 17 C2.34 17.66 1.68 18.32 1 19 C-0.32 19 -1.64 19 -3 19 C-3 19.66 -3 20.32 -3 21 C-1.35 21.33 0.3 21.66 2 22 C2 23.98 2 25.96 2 28 C-1.55780196 27.39009109 -4.6828589 26.4216319 -8 25 C-5.82489592 28.26265612 -4.87050047 28.73936409 -1.375 30.1875 C-0.55773438 30.53167969 0.25953125 30.87585938 1.1015625 31.23046875 C2.04128906 31.61138672 2.04128906 31.61138672 3 32 C3.02708567 33.60407328 3.04643483 35.2082785 3.0625 36.8125 C3.07410156 37.70582031 3.08570312 38.59914063 3.09765625 39.51953125 C3 42 3 42 2 45 C2.185625 46.11375 2.37125 47.2275 2.5625 48.375 C3.01242678 52.10296475 2.68727178 53.72470772 1 57 C1.66 57 2.32 57 3 57 C3 64.33333333 3 71.66666667 3 79 C3.04125 79.99 3.0825 80.98 3.125 82 C2.99789579 85.05050092 2.40049042 86.37408046 1 89 C1 90.32 1 91.64 1 93 C-0.98 93.99 -0.98 93.99 -3 95 C-2.34 95.66 -1.68 96.32 -1 97 C-3.475 97.495 -3.475 97.495 -6 98 C-6 97.34 -6 96.68 -6 96 C-7.98 96.495 -7.98 96.495 -10 97 C-10 96.34 -10 95.68 -10 95 C-10.66 94.67 -11.32 94.34 -12 94 C-11.34 94 -10.68 94 -10 94 C-10 93.34 -10 92.68 -10 92 C-10.99 92 -11.98 92 -13 92 C-13 91.34 -13 90.68 -13 90 C-12.34 90 -11.68 90 -11 90 C-10.63019987 85.95377498 -10.63019987 85.95377498 -13 83 C-12.6758631 79.67759676 -12.39223697 78.39223697 -10 76 C-10.48726562 75.47277344 -10.97453125 74.94554687 -11.4765625 74.40234375 C-13.4463065 71.29620898 -13.40035836 69.21833094 -13.375 65.5625 C-13.38273438 64.45003906 -13.39046875 63.33757812 -13.3984375 62.19140625 C-12.96459521 58.71641458 -11.80404819 56.93787735 -10 54 C-11.19970518 50.93355547 -11.19970518 50.93355547 -13 48 C-14.65010428 41.86642853 -14.18599713 35.41947652 -14.18530273 29.11572266 C-14.18749987 26.87513527 -14.20571358 24.63503237 -14.22460938 22.39453125 C-14.22754176 20.96875168 -14.22952759 19.54296978 -14.23046875 18.1171875 C-14.23457764 16.82409668 -14.23868652 15.53100586 -14.24291992 14.19873047 C-14 11 -14 11 -12 8 C-10.68 8 -9.36 8 -8 8 C-8 7.34 -8 6.68 -8 6 C-10.475 5.01 -10.475 5.01 -13 4 C-13 2.68 -13 1.36 -13 0 C-8.2327415 -0.72720892 -4.73278813 -1.11896042 0 0 Z " fill="#E1E1E1" transform="translate(29,765)"/>
<path d="M0 0 C-0.89456869 6.64536741 -0.89456869 6.64536741 -1.6875 9.3125 C-1.790625 9.869375 -1.89375 10.42625 -2 11 C-1.34 11.66 -0.68 12.32 0 13 C0.2117572 15.47388875 0.30399471 17.83311124 0.30078125 20.30859375 C0.30506638 21.03111832 0.3093515 21.75364288 0.31376648 22.49806213 C0.31951237 24.02709912 0.32000812 25.55616344 0.31567383 27.08520508 C0.31251671 29.42511674 0.33595758 31.76376067 0.36132812 34.10351562 C0.36360139 35.58854007 0.36430449 37.07356792 0.36328125 38.55859375 C0.372491 39.2586705 0.38170074 39.95874725 0.39118958 40.68003845 C0.34475918 45.55507991 0.34475918 45.55507991 -1.52270508 47.96508789 C-2.25396606 48.47736938 -2.25396606 48.47736938 -3 49 C-2.34 49.33 -1.68 49.66 -1 50 C-1 51.65 -1 53.3 -1 55 C-6.65020618 54.39891424 -11.66164461 52.92471317 -17 51 C-17.25 48.6875 -17.25 48.6875 -17 46 C-16.34 45.54625 -15.68 45.0925 -15 44.625 C-14.34 44.08875 -13.68 43.5525 -13 43 C-12.66619186 39.37436186 -12.66619186 39.37436186 -13 36 C-14.65 36 -16.3 36 -18 36 C-17.67 34.68 -17.34 33.36 -17 32 C-14.525 31.505 -14.525 31.505 -12 31 C-12 30.34 -12 29.68 -12 29 C-12.66 29 -13.32 29 -14 29 C-13.8453125 27.3603125 -13.8453125 27.3603125 -13.6875 25.6875 C-13.790625 24.470625 -13.89375 23.25375 -14 22 C-16.3726974 19.99135641 -16.3726974 19.99135641 -19 19 C-18.67 17.68 -18.34 16.36 -18 15 C-16.68 14.67 -15.36 14.34 -14 14 C-13.23681405 9.17867673 -13.23681405 9.17867673 -13.0625 4.3125 C-12.98971276 1.61937205 -12.56571188 0.19199663 -11 -2 C-7.07040122 -4.18311043 -3.6835409 -1.77093312 0 0 Z " fill="#EAEAEA" transform="translate(32,930)"/>
<path d="M0 0 C0.66 0 1.32 0 2 0 C1.7834375 1.00160156 1.566875 2.00320313 1.34375 3.03515625 C1.06213368 4.37752737 0.78090434 5.71997971 0.5 7.0625 C0.35691406 7.71927734 0.21382812 8.37605469 0.06640625 9.05273438 C-0.83650857 13.41682269 -1.4543004 17.52730439 -1 22 C0.53659204 24.12986813 0.53659204 24.12986813 2.75 25.625 C5.99143385 28.17101985 8.55678588 30.64058058 11 34 C9.54166667 33.85416667 8.08333333 33.70833333 6.625 33.5625 C5.70589844 33.4903125 4.78679687 33.418125 3.83984375 33.34375 C1 33 1 33 -1.43359375 32.21875 C-4.44225318 31.38877498 -5.95140597 31.1737049 -9 32 C-14.03220171 35.92722069 -18.01980133 41.05282516 -22 46 C-23.8111121 42.3777758 -21.67171886 38.233213 -20.69140625 34.45703125 C-19.9338722 30.66936101 -19.44329227 27.84085177 -20 24 C-21.85081801 21.46743758 -24.09316283 19.55652206 -26.5 17.5625 C-27.12003906 17.02173828 -27.74007812 16.48097656 -28.37890625 15.92382812 C-29.90402913 14.59814439 -31.45006152 13.29658315 -33 12 C-29.17800923 10.87823419 -26.91422945 11.34463855 -23.0625 12.4375 C-17.60724994 14.02108671 -17.60724994 14.02108671 -12 14 C-10.06436612 12.48994573 -10.06436612 12.48994573 -8.5 10.375 C-7.90832031 9.65054687 -7.31664062 8.92609375 -6.70703125 8.1796875 C-6.14371094 7.46039063 -5.58039063 6.74109375 -5 6 C-3.3702656 3.95534634 -1.72298583 1.96912667 0 0 Z " fill="#0C0C0C" transform="translate(195,257)"/>
<path d="M0 0 C3.75212276 2.01502889 5.63644095 3.45466142 8 7 C8.60362041 11.18614674 8.41698873 14.93436214 6.875 18.875 C3.58952288 22.59854074 0.36101848 23.80556879 -4.5 24.5 C-9.17750129 23.83178553 -10.68944344 22.31055656 -14 19 C-15.86233425 15.27533151 -15.57130829 11.05504687 -15 7 C-11.60805676 0.65909118 -6.91548702 -0.95120082 0 0 Z " fill="#0C0C0C" transform="translate(331,244)"/>
<path d="M0 0 C3.76456766 2.06682146 7.05213977 4.10427955 9 8 C9.60220318 12.08159931 9.92080832 14.48848446 7.7578125 18.0390625 C4.34286819 22.16757726 2.18328991 23.75283511 -3.3125 24.375 C-8.25480563 23.87239265 -9.56012162 22.51987555 -13 19 C-15.31205572 15.7421033 -15.47249357 12.93744642 -15 9 C-11.58746873 2.55410759 -7.52669289 -1.07524184 0 0 Z " fill="#080808" transform="translate(201,373)"/>
<path d="M0 0 C2.92751744 1.45227826 4.5220373 3.09008122 6 6 C6.9338374 10.21249282 7.04965878 14.08908273 4.93359375 17.94140625 C2.66153473 20.75604652 0.68302104 22.76437706 -2.953125 23.2734375 C-7.20719718 23.46154273 -10.09982354 23.43570087 -13.5 20.6875 C-16.91445586 17.01695995 -17.39610487 14.04721005 -17.359375 9.0703125 C-16.71820971 5.3766429 -14.64068388 3.57781045 -12 1 C-8.23482511 -0.88258744 -4.09103307 -0.63179563 0 0 Z " fill="#050505" transform="translate(450,320)"/>
<path d="M0 0 C2.375 0.1875 2.375 0.1875 5 1 C6.3125 3.5625 6.3125 3.5625 7 6 C7.33 4.35 7.66 2.7 8 1 C8.33 1 8.66 1 9 1 C9 4.33333333 9 7.66666667 9 11 C9.04125 11.99 9.0825 12.98 9.125 14 C8.99789579 17.05050092 8.40049042 18.37408046 7 21 C7 22.32 7 23.64 7 25 C5.02 25.99 5.02 25.99 3 27 C3.66 27.66 4.32 28.32 5 29 C3.35 29.33 1.7 29.66 0 30 C0 29.34 0 28.68 0 28 C-1.32 28.33 -2.64 28.66 -4 29 C-4 28.34 -4 27.68 -4 27 C-4.66 26.67 -5.32 26.34 -6 26 C-5.34 26 -4.68 26 -4 26 C-4 25.34 -4 24.68 -4 24 C-4.99 24 -5.98 24 -7 24 C-7 23.34 -7 22.68 -7 22 C-6.34 22 -5.68 22 -5 22 C-4.63019987 17.95377498 -4.63019987 17.95377498 -7 15 C-6.6758631 11.67759676 -6.39223697 10.39223697 -4 8 C-4.495 7.401875 -4.99 6.80375 -5.5 6.1875 C-7 4 -7 4 -7 1 C-6.01 1 -5.02 1 -4 1 C-3.67 1.99 -3.34 2.98 -3 4 C-2.01 2.68 -1.02 1.36 0 0 Z " fill="#E8E8E8" transform="translate(23,833)"/>
<path d="M0 0 C1.9375 0.8125 1.9375 0.8125 4 2 C4.33 2.99 4.66 3.98 5 5 C7.09138456 6.23950042 7.09138456 6.23950042 9.5625 7.1875 C10.38878906 7.53167969 11.21507812 7.87585938 12.06640625 8.23046875 C12.70449219 8.48441406 13.34257812 8.73835937 14 9 C14.02708567 10.60407328 14.04643483 12.2082785 14.0625 13.8125 C14.07410156 14.70582031 14.08570312 15.59914063 14.09765625 16.51953125 C14 19 14 19 13 22 C13.185625 23.11375 13.37125 24.2275 13.5625 25.375 C14.01242678 29.10296475 13.68727178 30.72470772 12 34 C12.66 34 13.32 34 14 34 C13.67 39.61 13.34 45.22 13 51 C12.01 51.495 12.01 51.495 11 52 C10.34 50.02 9.68 48.04 9 46 C6.56282742 46.27034634 6.56282742 46.27034634 4 47 C3.34 47.99 2.68 48.98 2 50 C1.67 48.68 1.34 47.36 1 46 C0.01 46 -0.98 46 -2 46 C-2.7742915 37.13866397 -2.7742915 37.13866397 0.125 32.875 C3.43712179 30.71492057 5.12850682 30.64804607 9 31 C10.24660324 29.94945399 10.24660324 29.94945399 10.375 27.625 C10.27555061 24.77459376 10.27555061 24.77459376 7.625 23.125 C6.75875 22.75375 5.8925 22.3825 5 22 C4.34 22.33 3.68 22.66 3 23 C3.33 22.01 3.66 21.02 4 20 C6.31 20 8.62 20 11 20 C11 18.35 11 16.7 11 15 C10.34 14.67 9.68 14.34 9 14 C9.66 14 10.32 14 11 14 C11 13.01 11 12.02 11 11 C10.113125 10.731875 9.22625 10.46375 8.3125 10.1875 C2.59665871 8.13842482 2.59665871 8.13842482 0 6 C-0.3125 2.8125 -0.3125 2.8125 0 0 Z " fill="#E2E2E2" transform="translate(18,788)"/>
<path d="M0 0 C3 0.25 3 0.25 5 2.25 C5.7166207 4.56847874 6.38242027 6.90319703 7 9.25 C7.33 10.24 7.66 11.23 8 12.25 C7.0625 14.4375 7.0625 14.4375 6 16.25 C6.66 16.91 7.32 17.57 8 18.25 C8.33333333 23.58333333 8.33333333 23.58333333 7 26.25 C5.35 26.25 3.7 26.25 2 26.25 C2 24.27 2 22.29 2 20.25 C1.34 19.92 0.68 19.59 0 19.25 C-0.226875 20.054375 -0.45375 20.85875 -0.6875 21.6875 C-2 24.25 -2 24.25 -4.5 25.1875 C-5.325 25.208125 -6.15 25.22875 -7 25.25 C-9 23.25 -9 23.25 -9.1875 19.875 C-9.04410663 17.10272822 -8.83710258 14.86594556 -8 12.25 C-7.34 12.25 -6.68 12.25 -6 12.25 C-5.95101563 11.55132813 -5.90203125 10.85265625 -5.8515625 10.1328125 C-5.77679687 9.22273437 -5.70203125 8.31265625 -5.625 7.375 C-5.55539063 6.47007812 -5.48578125 5.56515625 -5.4140625 4.6328125 C-4.76815823 0.91581624 -3.7061928 0.3088494 0 0 Z " fill="#E2E2E2" transform="translate(24,898.75)"/>
<path d="M0 0 C1.03435556 1.64556566 2.02763513 3.3170608 3 5 C4.62449243 6.70779973 6.29220027 8.37550757 8 10 C9.33333333 11.33333333 10.66666667 12.66666667 12 14 C11.484375 14.78375 10.96875 15.5675 10.4375 16.375 C9.963125 17.24125 9.48875 18.1075 9 19 C9.33 19.66 9.66 20.32 10 21 C7.03 21.66 4.06 22.32 1 23 C1 22.34 1 21.68 1 21 C-1.475 20.01 -1.475 20.01 -4 19 C-5.16766467 10.75449102 -5.16766467 10.75449102 -4.375 7.1875 C-3.72803831 4.86686394 -3.72803831 4.86686394 -5.4375 2.6875 C-5.953125 2.130625 -6.46875 1.57375 -7 1 C-4.50935112 0.31292445 -2.62113708 0 0 0 Z " fill="#0E0E0E" transform="translate(423,820)"/>
<path d="M0 0 C0.33 0 0.66 0 1 0 C1 5.94 1 11.88 1 18 C0.34 18 -0.32 18 -1 18 C-1 18.66 -1 19.32 -1 20 C-3.97 20.33 -6.94 20.66 -10 21 C-10.33 20.01 -10.66 19.02 -11 18 C-11.66 18 -12.32 18 -13 18 C-13 16.35 -13 14.7 -13 13 C-14.32 13 -15.64 13 -17 13 C-17 11.68 -17 10.36 -17 9 C-13.535 8.505 -13.535 8.505 -10 8 C-10.66 7.34 -11.32 6.68 -12 6 C-11.67 5.01 -11.34 4.02 -11 3 C-9.68 3.99 -8.36 4.98 -7 6 C-5.35 5.01 -3.7 4.02 -2 3 C-2 4.32 -2 5.64 -2 7 C-1.855625 6.21625 -1.71125 5.4325 -1.5625 4.625 C-1 2 -1 2 0 0 Z " fill="#E9E9E9" transform="translate(31,876)"/>
<path d="M0 0 C3.97314921 1.62150004 6.79300438 4.35582873 9.8125 7.3125 C10.5849707 8.0230957 10.5849707 8.0230957 11.37304688 8.74804688 C12.83203125 10.17578125 12.83203125 10.17578125 15 13 C14.91378381 16.324113 14.26981428 17.6302545 12.3125 20.3125 C9.31967869 22.49645069 7.63127267 22.46356672 4 22 C3.01 21.34 2.02 20.68 1 20 C1 19.34 1 18.68 1 18 C0.34 18 -0.32 18 -1 18 C-1.16372736 14.56172537 -1.05061515 12.14059765 0.125 8.875 C1.31092568 6.07369029 1.31092568 6.07369029 0.0625 3.75 C-0.288125 3.1725 -0.63875 2.595 -1 2 C-0.67 1.34 -0.34 0.68 0 0 Z " fill="#0E0E0E" transform="translate(697,368)"/>
<path d="M0 0 C1.94140625 0.37890625 1.94140625 0.37890625 4.44140625 1.94140625 C6.52533443 5.32778954 6.49942722 7.47275943 5.94140625 11.37890625 C4.37890625 13.81640625 4.37890625 13.81640625 1.94140625 15.37890625 C-1.99875388 15.94178627 -4.11641571 15.98286653 -7.49609375 13.81640625 C-9.64739122 10.46038219 -9.54806666 8.29468954 -9.05859375 4.37890625 C-7.25061386 -0.02804474 -4.59262964 -0.26219433 0 0 Z " fill="#0B0B0B" transform="translate(267.05859375,643.62109375)"/>
<path d="M0 0 C1.8125 1.125 1.8125 1.125 3 3 C3.49573337 6.89504791 3.58016848 9.09493717 1.4375 12.4375 C-1.94217804 14.60396028 -4.05983987 14.56288002 -8 14 C-10.375 12.5 -10.375 12.5 -12 10 C-12.60891847 7.29598916 -12.81444126 4.78338105 -13 2 C-4.42046127 -1.76818451 -4.42046127 -1.76818451 0 0 Z " fill="#111111" transform="translate(441,816)"/>
<path d="M0 0 C-0.88188976 6.5511811 -0.88188976 6.5511811 -1.625 9.375 C-1.74875 9.91125 -1.8725 10.4475 -2 11 C-1.67 11.33 -1.34 11.66 -1 12 C-0.95919217 13.99958364 -0.95745644 16.00045254 -1 18 C-1.66 18.33 -2.32 18.66 -3 19 C-3.4640625 17.5459375 -3.4640625 17.5459375 -3.9375 16.0625 C-4.69523342 13.15934208 -4.69523342 13.15934208 -6 12 C-7.66617115 11.95936168 -9.33388095 11.957279 -11 12 C-11.99 14.475 -11.99 14.475 -13 17 C-14.65 17 -16.3 17 -18 17 C-18.33 17.66 -18.66 18.32 -19 19 C-18.67 17.68 -18.34 16.36 -18 15 C-16.68 14.67 -15.36 14.34 -14 14 C-13.23681405 9.17867673 -13.23681405 9.17867673 -13.0625 4.3125 C-12.98971276 1.61937205 -12.56571188 0.19199663 -11 -2 C-7.07040122 -4.18311043 -3.6835409 -1.77093312 0 0 Z " fill="#DCDCDC" transform="translate(32,930)"/>
<path d="M0 0 C5.75 0.75 5.75 0.75 8 3 C7.505 3.4125 7.01 3.825 6.5 4.25 C4.56613908 6.12202338 4.56613908 6.12202338 5 10 C7.78823655 11.0326802 8.8677274 11.04509293 11.75 10.0625 C12.4925 9.711875 13.235 9.36125 14 9 C14.33 9.99 14.66 10.98 15 12 C12.87108334 14.62020512 11.70057821 15.88595238 8.3125 16.4375 C5.28560164 16.03772097 3.28489513 15.32954103 0.5 14.1875 C-1.74989069 13.27020566 -1.74989069 13.27020566 -4 13 C-6.69023205 14.2873503 -7.95438242 15.74457549 -10 18 C-8.47146065 13.72813475 -6.28490519 10.00673137 -3.875 6.1875 C-3.50246094 5.59001953 -3.12992188 4.99253906 -2.74609375 4.37695312 C-1.8342952 2.91573749 -0.91764024 1.45755415 0 0 Z " fill="#111111" transform="translate(783,629)"/>
<path d="M0 0 C4.29 0 8.58 0 13 0 C13 0.99 13 1.98 13 3 C10.69 3.33 8.38 3.66 6 4 C6.598125 4.103125 7.19625 4.20625 7.8125 4.3125 C10.38994819 5.12255514 11.43063575 5.80289005 13 8 C13.3125 10.5625 13.3125 10.5625 13 13 C11 15 11 15 8.125 15.375 C5 15 5 15 2.6875 13.1875 C-0.58997521 8.93892102 -0.08391387 5.11874577 0 0 Z " fill="#515151" transform="translate(16,805)"/>
<path d="M0 0 C2 2 2 2 2.125 5.125 C2.08375 6.07375 2.0425 7.0225 2 8 C3.093125 7.95875 4.18625 7.9175 5.3125 7.875 C9 8 9 8 12 10 C9.09635166 13.37845876 6.80223021 13.71703031 2.4921875 14.0703125 C-1.56656208 13.95580232 -5.44862113 12.99765062 -9 11 C-9.33 10.01 -9.66 9.02 -10 8 C-11.49985609 6.33289654 -11.49985609 6.33289654 -13 5 C-12.34 4.01 -11.68 3.02 -11 2 C-6.75177626 2.47202486 -4.80010291 4.96655518 -2 8 C-2.04125 7.05125 -2.0825 6.1025 -2.125 5.125 C-2 2 -2 2 0 0 Z " fill="#151515" transform="translate(500,406)"/>
<path d="M0 0 C11.70615034 6.15034169 11.70615034 6.15034169 16 10 C14.125 14.875 14.125 14.875 13 16 C10.75 16.375 10.75 16.375 8 16 C6.29220027 14.37550757 4.62449243 12.70779973 3 11 C0.82653432 10.13880866 0.82653432 10.13880866 -1 10 C-2.25 3.375 -2.25 3.375 0 0 Z " fill="#101010" transform="translate(626,273)"/>
<path d="M0 0 C3.77489966 1.07001414 7.13139639 2.65162988 10.5859375 4.47265625 C11.22660156 4.80201172 11.86726562 5.13136719 12.52734375 5.47070312 C14.09232382 6.27655107 15.65217771 7.09234118 17.2109375 7.91015625 C16.2209375 9.39515625 16.2209375 9.39515625 15.2109375 10.91015625 C13.21137139 10.95181388 11.21050361 10.95181388 9.2109375 10.91015625 C8.5509375 11.57015625 7.8909375 12.23015625 7.2109375 12.91015625 C2.5909375 9.61015625 -2.0290625 6.31015625 -6.7890625 2.91015625 C-2.7890625 -0.08984375 -2.7890625 -0.08984375 0 0 Z " fill="#121212" transform="translate(720.7890625,181.08984375)"/>
<path d="M0 0 C2.64942024 1.11711744 5.29436488 2.24319023 7.9375 3.375 C9.06961914 3.85066406 9.06961914 3.85066406 10.22460938 4.3359375 C15.88671875 6.7734375 15.88671875 6.7734375 17 9 C11.06 10.32 5.12 11.64 -1 13 C-3.33333333 6 -3.33333333 6 -2 2 C-1.34 1.34 -0.68 0.68 0 0 Z " fill="#101010" transform="translate(407,835)"/>
<path d="M0 0 C4.93054827 2.71683272 9.46284362 5.66657898 14 9 C13 11 13 11 11 13 C4.52677215 14.04406901 4.52677215 14.04406901 1.33203125 11.859375 C-0.0625 10.375 -0.0625 10.375 -2 7 C-1.80392157 1.80392157 -1.80392157 1.80392157 0 0 Z " fill="#111111" transform="translate(731,343)"/>
<path d="M0 0 C6.6 0 13.2 0 20 0 C20.33 1.65 20.66 3.3 21 5 C13.74 5 6.48 5 -1 5 C-0.67 3.35 -0.34 1.7 0 0 Z " fill="#A9A9A9" transform="translate(14,868)"/>
<path d="M0 0 C1.32 0 2.64 0 4 0 C4 6.27 4 12.54 4 19 C6.97 19.33 9.94 19.66 13 20 C12.67 21.32 12.34 22.64 12 24 C9.69 24 7.38 24 5 24 C5.66 25.65 6.32 27.3 7 29 C5.125 29.625 5.125 29.625 3 30 C1 28 1 28 0.98828125 25.453125 C1.09527344 24.39609375 1.20226562 23.3390625 1.3125 22.25 C1.42078125 21.09628906 1.5290625 19.94257812 1.640625 18.75390625 C1.75921875 17.51511719 1.8778125 16.27632812 2 15 C2.19456957 12.39635199 2.38231845 9.79218326 2.5625 7.1875 C2.68818359 5.41439453 2.68818359 5.41439453 2.81640625 3.60546875 C2.87699219 2.74566406 2.93757813 1.88585937 3 1 C2.01 0.67 1.02 0.34 0 0 Z " fill="#171717" transform="translate(302,759)"/>
<path d="M0 0 C2.31243792 -0.02685412 4.6249627 -0.04632841 6.9375 -0.0625 C8.22527344 -0.07410156 9.51304688 -0.08570313 10.83984375 -0.09765625 C14 0 14 0 15 1 C15.1875 3.9375 15.1875 3.9375 15 7 C13 9 13 9 10 9.3125 C9.01 9.209375 8.02 9.10625 7 9 C5 6 5 6 5 3 C3.35 3 1.7 3 0 3 C0 2.01 0 1.02 0 0 Z " fill="#656565" transform="translate(14,963)"/>
<path d="M0 0 C2.625 0.25 2.625 0.25 4.4375 1.375 C5.625 3.25 5.625 3.25 5.625 9.25 C0.675 9.25 -4.275 9.25 -9.375 9.25 C-9.375 8.26 -9.375 7.27 -9.375 6.25 C-7.725 6.25 -6.075 6.25 -4.375 6.25 C-4.230625 5.445625 -4.08625 4.64125 -3.9375 3.8125 C-3.17394875 0.33409987 -3.17394875 0.33409987 0 0 Z " fill="#656565" transform="translate(23.375,940.75)"/>
<path d="M0 0 C4.875 0.875 4.875 0.875 6 2 C6.1875 4.4375 6.1875 4.4375 6 7 C4 9 4 9 1.90625 9.265625 C1.1121875 9.26046875 0.318125 9.2553125 -0.5 9.25 C-1.2940625 9.25515625 -2.088125 9.2603125 -2.90625 9.265625 C-5 9 -5 9 -7 7 C-7.125 4.375 -7.125 4.375 -7 2 C-2.25 0.875 -2.25 0.875 0 2 C0 1.34 0 0.68 0 0 Z " fill="#797979" transform="translate(23,775)"/>
<path d="M0 0 C0.4375 2.625 0.4375 2.625 0 6 C-2.0949488 8.33122122 -4.46073827 10.17328621 -7 12 C-12.75 7.25 -12.75 7.25 -15 5 C-13.06532058 4.16013916 -11.12714871 3.32831973 -9.1875 2.5 C-8.10855469 2.0359375 -7.02960938 1.571875 -5.91796875 1.09375 C-3 0 -3 0 0 0 Z " fill="#161616" transform="translate(455,809)"/>
<path d="M0 0 C3.85006136 0.77001227 6.00776573 1.3261142 9.3125 3.0625 C10.00988281 3.42472656 10.70726562 3.78695312 11.42578125 4.16015625 C11.94527344 4.43730469 12.46476562 4.71445312 13 5 C13 5.66 13 6.32 13 7 C8.87248551 6.39301257 5.6678852 4.96189209 2 3 C1.70371263 5.84534204 1.70371263 5.84534204 3 9 C6.15928811 11.08286967 9.50495521 12.56646076 13 14 C13 14.66 13 15.32 13 16 C8.87248551 15.39301257 5.6678852 13.96189209 2 12 C2 13.98 2 15.96 2 18 C1.34 18 0.68 18 0 18 C0 12.06 0 6.12 0 0 Z " fill="#4A4A4A" transform="translate(16,785)"/>
<path d="M0 0 C0 0.99 0 1.98 0 3 C-0.99 3.33 -1.98 3.66 -3 4 C-3.33 5.65 -3.66 7.3 -4 9 C-2.68 9 -1.36 9 0 9 C0 9.99 0 10.98 0 12 C-0.67546875 11.79503906 -1.3509375 11.59007812 -2.046875 11.37890625 C-2.93890625 11.10949219 -3.8309375 10.84007812 -4.75 10.5625 C-5.63171875 10.29566406 -6.5134375 10.02882813 -7.421875 9.75390625 C-9.60565835 9.11531506 -11.78835498 8.53224167 -14 8 C-14 6.68 -14 5.36 -14 4 C-12.0429132 3.32968281 -10.08428887 2.66385317 -8.125 2 C-7.03445312 1.62875 -5.94390625 1.2575 -4.8203125 0.875 C-2 0 -2 0 0 0 Z " fill="#545454" transform="translate(29,973)"/>
<path d="M0 0 C4.875 0.875 4.875 0.875 6 2 C6.1875 4.4375 6.1875 4.4375 6 7 C4 9 4 9 1.1875 9.4375 C-3.03036531 8.85857731 -4.40130534 7.28658443 -7 4 C-7 3.01 -7 2.02 -7 1 C-6.01 1 -5.02 1 -4 1 C-3.67 1.99 -3.34 2.98 -3 4 C-2.01 2.68 -1.02 1.36 0 0 Z " fill="#515151" transform="translate(23,833)"/>
<path d="M0 0 C4.875 0.875 4.875 0.875 6 2 C6.1875 4.4375 6.1875 4.4375 6 7 C4 9 4 9 1.1875 9.4375 C-3.03036531 8.85857731 -4.40130534 7.28658443 -7 4 C-7 3.01 -7 2.02 -7 1 C-6.34 1 -5.68 1 -5 1 C-4.34 1.99 -3.68 2.98 -3 4 C-2.01 2.68 -1.02 1.36 0 0 Z " fill="#575757" transform="translate(23,844)"/>
<path d="M0 0 C0.66 0 1.32 0 2 0 C2.91969171 1.39656889 3.83488344 2.79631883 4.7265625 4.2109375 C7.07759848 7.51392669 10.08206408 10.20392683 13 13 C14.00228049 13.99771429 15.00303488 14.9969743 16 16 C13.75 16.69140625 13.75 16.69140625 11 17 C8.9375 15.77734375 8.9375 15.77734375 7 13.9375 C6.319375 13.29554688 5.63875 12.65359375 4.9375 11.9921875 C2.45193388 9.43646427 0.1933808 6.81026915 -2 4 C-1.34 2.68 -0.68 1.36 0 0 Z " fill="#131313" transform="translate(382,342)"/>
<path d="M0 0 C4.875 0.875 4.875 0.875 6 2 C6.1875 4.4375 6.1875 4.4375 6 7 C5.34 7.66 4.68 8.32 4 9 C-1.45454545 8.54545455 -1.45454545 8.54545455 -4 6 C-3.34 6 -2.68 6 -2 6 C-2 5.01 -2 4.02 -2 3 C-2.99 3.495 -2.99 3.495 -4 4 C-4.33 4.99 -4.66 5.98 -5 7 C-5.66 7 -6.32 7 -7 7 C-7 5.35 -7 3.7 -7 2 C-2.25 0.875 -2.25 0.875 0 2 C0 1.34 0 0.68 0 0 Z " fill="#555555" transform="translate(23,822)"/>
<path d="M0 0 C0 3.11227195 -0.45627049 5.94152152 -1 9 C1.91482778 9.80967438 3.46113217 10.21845993 6.3125 9.0625 C6.869375 8.711875 7.42625 8.36125 8 8 C8.33 8.66 8.66 9.32 9 10 C7.4375 12.5 7.4375 12.5 5 15 C1.25 15.3125 1.25 15.3125 -2 15 C-2.33 15.66 -2.66 16.32 -3 17 C-4.84617176 13.30765648 -4.48712159 9.02982407 -4 5 C-2 1.875 -2 1.875 0 0 Z " fill="#161616" transform="translate(320,246)"/>
<path d="M0 0 C3 0.25 3 0.25 5 2.25 C5.25 4.75 5.25 4.75 5 7.25 C3 9.25 3 9.25 0 9.5 C-3 9.25 -3 9.25 -5 7.25 C-5.25 4.75 -5.25 4.75 -5 2.25 C-3 0.25 -3 0.25 0 0 Z " fill="#585858" transform="translate(24,951.75)"/>
<path d="M0 0 C3 0.25 3 0.25 5 2.25 C5.25 4.75 5.25 4.75 5 7.25 C3 9.25 3 9.25 0 9.5 C-3 9.25 -3 9.25 -5 7.25 C-5.25 4.75 -5.25 4.75 -5 2.25 C-3 0.25 -3 0.25 0 0 Z " fill="#555555" transform="translate(24,898.75)"/>
<path d="M0 0 C4.29 0 8.58 0 13 0 C13 0.99 13 1.98 13 3 C10.69 3.33 8.38 3.66 6 4 C7.32 4.66 8.64 5.32 10 6 C9.38125 6.268125 8.7625 6.53625 8.125 6.8125 C5.7004767 7.95556848 5.7004767 7.95556848 4 11 C3.34 9.68 2.68 8.36 2 7 C1.34 7 0.68 7 0 7 C0 4.69 0 2.38 0 0 Z " fill="#CFCFCF" transform="translate(16,805)"/>
<path d="M0 0 C0.12375 0.61875 0.2475 1.2375 0.375 1.875 C0.87197356 4.19120832 0.87197356 4.19120832 3 6 C4.98356483 6.71408334 6.98315437 7.38617742 9 8 C8.67 9.32 8.34 10.64 8 12 C5.875 12.8125 5.875 12.8125 3 13 C0.69892439 11.55576519 -1.01646386 9.89127865 -3 8 C-4.32 8.99 -5.64 9.98 -7 11 C-5.22054913 6.95579349 -2.60470327 3.53921513 0 0 Z " fill="#151515" transform="translate(769,651)"/>
<path d="M0 0 C1.65 0.99 3.3 1.98 5 3 C6.65 2.01 8.3 1.02 10 0 C9.125 3.875 9.125 3.875 8 5 C8.66 5.33 9.32 5.66 10 6 C10 6.99 10 7.98 10 9 C5.05 9 0.1 9 -5 9 C-5 8.01 -5 7.02 -5 6 C-1.535 5.505 -1.535 5.505 2 5 C1.34 4.34 0.68 3.68 0 3 C0 2.01 0 1.02 0 0 Z " fill="#5F5F5F" transform="translate(19,879)"/>
<path d="M0 0 C0 0.99 0 1.98 0 3 C-0.99 3 -1.98 3 -3 3 C-3 4.65 -3 6.3 -3 8 C-6.93370357 7.43804235 -9.83175607 6.44407389 -13 4 C-13 2.68 -13 1.36 -13 0 C-4.57142857 -1.28571429 -4.57142857 -1.28571429 0 0 Z " fill="#575757" transform="translate(29,765)"/>
<path d="M0 0 C0.66 0.66 1.32 1.32 2 2 C4.21072977 2.24253813 4.21072977 2.24253813 6.625 2.125 C7.44226563 2.10695313 8.25953125 2.08890625 9.1015625 2.0703125 C9.72804688 2.04710937 10.35453125 2.02390625 11 2 C12.90608098 5.21182149 13.22266247 7.53882603 13.125 11.25 C13.10695313 12.14203125 13.08890625 13.0340625 13.0703125 13.953125 C13.03550781 14.96632813 13.03550781 14.96632813 13 16 C9.71669856 13.07651242 9.04133067 10.24542505 8 6 C3.85906302 5.79029441 3.85906302 5.79029441 0 7 C0 4.69 0 2.38 0 0 Z " fill="#E8E8E8" transform="translate(19,894)"/>
<path d="M0 0 C6.04801071 0.54981916 11.30601106 1.90429574 17 4 C17 4.33 17 4.66 17 5 C6.605 5.495 6.605 5.495 -4 6 C-3.01 5.67 -2.02 5.34 -1 5 C-0.67 3.35 -0.34 1.7 0 0 Z " fill="#2C2C2C" transform="translate(464,435)"/>
<path d="M0 0 C1.2065625 0.0309375 1.2065625 0.0309375 2.4375 0.0625 C2.7675 1.7125 3.0975 3.3625 3.4375 5.0625 C3.7675 3.7425 4.0975 2.4225 4.4375 1.0625 C5.0975 1.0625 5.7575 1.0625 6.4375 1.0625 C6.5625 3.4375 6.5625 3.4375 6.4375 6.0625 C4.4375 8.0625 4.4375 8.0625 1.4375 8.3125 C-1.5625 8.0625 -1.5625 8.0625 -3.5625 6.0625 C-3.75 3.5 -3.75 3.5 -3.5625 1.0625 C-2.5625 0.0625 -2.5625 0.0625 0 0 Z " fill="#515151" transform="translate(22.5625,930.9375)"/>
<path d="M0 0 C0 0.66 0 1.32 0 2 C1.32 1.67 2.64 1.34 4 1 C4 1.66 4 2.32 4 3 C4.99 3 5.98 3 7 3 C7 3.66 7 4.32 7 5 C6.01 5.495 6.01 5.495 5 6 C5.66 6.66 6.32 7.32 7 8 C5.35 8.33 3.7 8.66 2 9 C2 8.34 2 7.68 2 7 C0.68 7.33 -0.64 7.66 -2 8 C-2 7.34 -2 6.68 -2 6 C-2.66 5.67 -3.32 5.34 -4 5 C-3.34 5 -2.68 5 -2 5 C-2 4.34 -2 3.68 -2 3 C-2.99 3 -3.98 3 -5 3 C-5 2.34 -5 1.68 -5 1 C-2 0 -2 0 0 0 Z " fill="#747474" transform="translate(21,854)"/>
<path d="M0 0 C0.33 1.65 0.66 3.3 1 5 C0.01 5.33 -0.98 5.66 -2 6 C-2 5.01 -2 4.02 -2 3 C-6.29 3 -10.58 3 -15 3 C-15.33 3.99 -15.66 4.98 -16 6 C-16.042721 4.33388095 -16.04063832 2.66617115 -16 1 C-12.51101677 -2.48898323 -4.37957298 -0.82116993 0 0 Z " fill="#EEEEEE" transform="translate(31,762)"/>
<path d="M0 0 C4.70588235 0.70588235 4.70588235 0.70588235 6 2 C6.04080783 3.99958364 6.04254356 6.00045254 6 8 C5.01 7.67 4.02 7.34 3 7 C3 5.68 3 4.36 3 3 C2.34 2.67 1.68 2.34 1 2 C0.773125 2.804375 0.54625 3.60875 0.3125 4.4375 C-1 7 -1 7 -3.5 7.9375 C-4.325 7.958125 -5.15 7.97875 -6 8 C-8 6 -8 6 -8.125 3.375 C-8.08375 2.59125 -8.0425 1.8075 -8 1 C-7.34 1 -6.68 1 -6 1 C-5.814375 1.9590625 -5.814375 1.9590625 -5.625 2.9375 C-5.315625 3.9584375 -5.315625 3.9584375 -5 5 C-4.34 5.33 -3.68 5.66 -3 6 C-2.690625 5.195625 -2.38125 4.39125 -2.0625 3.5625 C-1 1 -1 1 0 0 Z " fill="#515151" transform="translate(23,916)"/>
<path d="M0 0 C4.95 0.99 4.95 0.99 10 2 C10 2.66 10 3.32 10 4 C11.65 4.33 13.3 4.66 15 5 C15 6.98 15 8.96 15 11 C14.01 10.67 13.02 10.34 12 10 C12.33 9.34 12.66 8.68 13 8 C11.7315625 7.5978125 11.7315625 7.5978125 10.4375 7.1875 C6.86145933 5.9521405 3.46139092 4.523012 0 3 C0 2.01 0 1.02 0 0 Z " fill="#DDDDDD" transform="translate(16,782)"/>
<path d="M0 0 C0.66 0 1.32 0 2 0 C2 1.32 2 2.64 2 4 C4.475 4.99 4.475 4.99 7 6 C6.38125 6.598125 5.7625 7.19625 5.125 7.8125 C2.86323046 10.00811144 2.86323046 10.00811144 1 13 C0.67 11.68 0.34 10.36 0 9 C-0.99 9 -1.98 9 -3 9 C-2.01 6.03 -1.02 3.06 0 0 Z " fill="#CDCDCD" transform="translate(19,825)"/>
<path d="M0 0 C0.99 0.33 1.98 0.66 3 1 C2.09627089 3.78649808 1.2608483 5.72051967 -0.75 7.875 C-3.8104489 9.40522445 -5.75160284 8.81209929 -9 8 C-8.01 6.35 -7.02 4.7 -6 3 C-5.67 3.66 -5.34 4.32 -5 5 C-3.35 3.35 -1.7 1.7 0 0 Z " fill="#131313" transform="translate(752,680)"/>
<path d="M0 0 C0.66 0 1.32 0 2 0 C2 0.66 2 1.32 2 2 C3.98 2 5.96 2 8 2 C8 1.34 8 0.68 8 0 C8.66 0 9.32 0 10 0 C9.67 1.65 9.34 3.3 9 5 C4.545 5.495 4.545 5.495 0 6 C0 5.34 0 4.68 0 4 C-0.99 4 -1.98 4 -3 4 C-3 3.34 -3 2.68 -3 2 C-2.01 2 -1.02 2 0 2 C0 1.34 0 0.68 0 0 Z " fill="#686868" transform="translate(19,909)"/>
<path d="M0 0 C1.42098605 2.66434884 1.19767261 4.90991085 1 7.875 C0.34 7.545 -0.32 7.215 -1 6.875 C-1.33 5.555 -1.66 4.235 -2 2.875 C-6.29 2.545 -10.58 2.215 -15 1.875 C-14 -0.125 -14 -0.125 -12.4375 -0.75 C-3.71812081 -2.09144295 -3.71812081 -2.09144295 0 0 Z " fill="#DEDEDE" transform="translate(30,961.125)"/>
<path d="M0 0 C1.2065625 0.0309375 1.2065625 0.0309375 2.4375 0.0625 C2.1075 1.0525 1.7775 2.0425 1.4375 3.0625 C0.4475 3.0625 -0.5425 3.0625 -1.5625 3.0625 C-1.8925 4.3825 -2.2225 5.7025 -2.5625 7.0625 C-0.5825 7.0625 1.3975 7.0625 3.4375 7.0625 C3.4375 7.3925 3.4375 7.7225 3.4375 8.0625 C-0.8525 8.0625 -5.1425 8.0625 -9.5625 8.0625 C-9.5625 7.4025 -9.5625 6.7425 -9.5625 6.0625 C-7.9125 6.0625 -6.2625 6.0625 -4.5625 6.0625 C-4.418125 5.258125 -4.27375 4.45375 -4.125 3.625 C-3.347189 0.08163876 -3.347189 0.08163876 0 0 Z " fill="#515151" transform="translate(23.5625,940.9375)"/>
<path d="M0 0 C1.32 0.33 2.64 0.66 4 1 C3.625 3.4375 3.625 3.4375 3 6 C2.01 6.495 2.01 6.495 1 7 C1 5.68 1 4.36 1 3 C-1.475 4.485 -1.475 4.485 -4 6 C-4.99 5.01 -5.98 4.02 -7 3 C-7.99 3.495 -7.99 3.495 -9 4 C-9 3.01 -9 2.02 -9 1 C-6.03 1.33 -3.06 1.66 0 2 C0 1.34 0 0.68 0 0 Z " fill="#E3E3E3" transform="translate(27,877)"/>
<path d="M0 0 C0.66 0 1.32 0 2 0 C1.67 1.32 1.34 2.64 1 4 C-0.76774419 4.53122363 -2.53934083 5.04964073 -4.3125 5.5625 C-5.29863281 5.85253906 -6.28476562 6.14257812 -7.30078125 6.44140625 C-10 7 -10 7 -13 6 C-7.81454918 1.06147541 -7.81454918 1.06147541 -3.6875 0.75 C-2.3571875 0.87375 -2.3571875 0.87375 -1 1 C-0.67 0.67 -0.34 0.34 0 0 Z " fill="#E0E0E0" transform="translate(28,970)"/>
<path d="M0 0 C2.31 0.33 4.62 0.66 7 1 C7 1.66 7 2.32 7 3 C4.69 3.66 2.38 4.32 0 5 C-0.33 6.32 -0.66 7.64 -1 9 C-2.65 9 -4.3 9 -6 9 C-6.33 9.66 -6.66 10.32 -7 11 C-6.67 9.68 -6.34 8.36 -6 7 C-5.38125 6.95875 -4.7625 6.9175 -4.125 6.875 C-3.42375 6.58625 -2.7225 6.2975 -2 6 C-0.6954344 3.00384054 -0.6954344 3.00384054 0 0 Z " fill="#E4E4E4" transform="translate(20,938)"/>
<path d="M0 0 C2.97 0.495 2.97 0.495 6 1 C6.33 2.65 6.66 4.3 7 6 C5.1875 6.6875 5.1875 6.6875 3 7 C1.25 5.8125 1.25 5.8125 0 4 C0 2.68 0 1.36 0 0 Z " fill="#020202" transform="translate(433,819)"/>
<path d="M0 0 C0.33 0 0.66 0 1 0 C1.05416188 1.60379341 1.09286638 3.20811406 1.125 4.8125 C1.14820313 5.70582031 1.17140625 6.59914063 1.1953125 7.51953125 C1 10 1 10 -1 13 C-4.5 13.125 -4.5 13.125 -8 13 C-8.99 13.495 -8.99 13.495 -10 14 C-9.67 13.01 -9.34 12.02 -9 11 C-6.69 11 -4.38 11 -2 11 C-2 9.35 -2 7.7 -2 6 C-2.66 5.67 -3.32 5.34 -4 5 C-2.68 4.67 -1.36 4.34 0 4 C0 2.68 0 1.36 0 0 Z " fill="#ECECEC" transform="translate(31,797)"/>
<path d="M0 0 C2.64 0 5.28 0 8 0 C8.125 2.875 8.125 2.875 8 6 C6 8 6 8 2.875 8.125 C1.451875 8.063125 1.451875 8.063125 0 8 C-0.33 6.68 -0.66 5.36 -1 4 C1.97 4.495 1.97 4.495 5 5 C5.33 3.68 5.66 2.36 6 1 C4.02 1 2.04 1 0 1 C0 0.67 0 0.34 0 0 Z " fill="#515151" transform="translate(21,964)"/>
<path d="M0 0 C0.66 0 1.32 0 2 0 C2.33 1.32 2.66 2.64 3 4 C4.32 4.33 5.64 4.66 7 5 C7.33 3.35 7.66 1.7 8 0 C8.66 0 9.32 0 10 0 C10.125 2.375 10.125 2.375 10 5 C8 7 8 7 5 7.3125 C3.515 7.1578125 3.515 7.1578125 2 7 C0 4 0 4 0 0 Z " fill="#535353" transform="translate(19,890)"/>
<path d="M0 0 C2.5 1.8125 2.5 1.8125 5 4 C5 4.99 5 5.98 5 7 C3.1875 7.625 3.1875 7.625 1 8 C0.01 7.34 -0.98 6.68 -2 6 C-1.125 1.125 -1.125 1.125 0 0 Z " fill="#020202" transform="translate(702,378)"/>
<path d="M0 0 C0.99 0 1.98 0 3 0 C3 0.66 3 1.32 3 2 C3.66 2 4.32 2 5 2 C4.67 4.31 4.34 6.62 4 9 C3.01 8.67 2.02 8.34 1 8 C1 6.68 1 5.36 1 4 C0.34 4 -0.32 4 -1 4 C-0.67 2.68 -0.34 1.36 0 0 Z " fill="#D3D3D3" transform="translate(16,913)"/>
<path d="M0 0 C2.25 1.9375 2.25 1.9375 4 4 C3.01 4.495 3.01 4.495 2 5 C1.34444881 7.52733235 1.34444881 7.52733235 1 10 C0.67 10 0.34 10 0 10 C0 8.02 0 6.04 0 4 C-1.32 4 -2.64 4 -4 4 C-4 3.01 -4 2.02 -4 1 C-2.25 0.25 -2.25 0.25 0 0 Z " fill="#D8D8D8" transform="translate(25,927)"/>
<path d="M0 0 C4.875 0.875 4.875 0.875 6 2 C6.04063832 3.66617115 6.042721 5.33388095 6 7 C4.35 7 2.7 7 1 7 C0 2.25 0 2.25 0 0 Z " fill="#939393" transform="translate(23,822)"/>
<path d="M0 0 C4.29 0 8.58 0 13 0 C13 0.66 13 1.32 13 2 C9.7 2 6.4 2 3 2 C3 2.99 3 3.98 3 5 C2.34 5 1.68 5 1 5 C0.67 3.35 0.34 1.7 0 0 Z " fill="#4D4D4D" transform="translate(16,805)"/>
<path d="M0 0 C0.66 0 1.32 0 2 0 C2.33 0.99 2.66 1.98 3 3 C3.66 3.33 4.32 3.66 5 4 C5 5.65 5 7.3 5 9 C4.34 9 3.68 9 3 9 C3 8.01 3 7.02 3 6 C1.68 6 0.36 6 -1 6 C-1.042721 4.33388095 -1.04063832 2.66617115 -1 1 C-0.67 0.67 -0.34 0.34 0 0 Z " fill="#DEDEDE" transform="translate(26,976)"/>
<path d="M0 0 C0.66 0.33 1.32 0.66 2 1 C6.14503661 1.24787017 6.14503661 1.24787017 10 0 C9.34 1.65 8.68 3.3 8 5 C6.02 5 4.04 5 2 5 C2 4.34 2 3.68 2 3 C1.34 3 0.68 3 0 3 C-0.33 3.66 -0.66 4.32 -1 5 C-0.67 3.35 -0.34 1.7 0 0 Z " fill="#DBDBDB" transform="translate(19,906)"/>
<path d="M0 0 C1.2065625 0.0309375 1.2065625 0.0309375 2.4375 0.0625 C2.4375 2.0425 2.4375 4.0225 2.4375 6.0625 C1.81875 5.876875 1.2 5.69125 0.5625 5.5 C-1.60410178 4.82563824 -1.60410178 4.82563824 -3.5625 6.0625 C-3.605221 4.39638095 -3.60313832 2.72867115 -3.5625 1.0625 C-2.5625 0.0625 -2.5625 0.0625 0 0 Z " fill="#7E7E7E" transform="translate(22.5625,930.9375)"/>
<path d="M0 0 C0.33 0.66 0.66 1.32 1 2 C1.99 2 2.98 2 4 2 C4 2.66 4 3.32 4 4 C3.01 4.495 3.01 4.495 2 5 C2.66 5.66 3.32 6.32 4 7 C2.35 7.33 0.7 7.66 -1 8 C-1 7.34 -1 6.68 -1 6 C-1.99 6.33 -2.98 6.66 -4 7 C-4 6.34 -4 5.68 -4 5 C-3.01 5 -2.02 5 -1 5 C-1.33 4.01 -1.66 3.02 -2 2 C-1.34 2 -0.68 2 0 2 C0 1.34 0 0.68 0 0 Z " fill="#595959" transform="translate(24,855)"/>
<path d="M0 0 C4.85963179 0.60745397 8.7405518 2.72758967 13 5 C13 5.66 13 6.32 13 7 C8.87248551 6.39301257 5.6678852 4.96189209 2 3 C2 2.34 2 1.68 2 1 C1.34 0.67 0.68 0.34 0 0 Z " fill="#565656" transform="translate(16,785)"/>
<path d="M0 0 C5.29158974 1.40071493 7.77478044 4.85487245 11 9 C7.34140712 9 6.05403361 7.72246476 3.36328125 5.37890625 C1.75098025 3.74812615 0.79568834 2.14835851 0 0 Z " fill="#242424" transform="translate(248,649)"/>
<path d="M0 0 C-0.33 1.32 -0.66 2.64 -1 4 C-1 3.01 -1 2.02 -1 1 C-5.29 1 -9.58 1 -14 1 C-13.67 0.34 -13.34 -0.32 -13 -1 C-11.07421875 -1.484375 -11.07421875 -1.484375 -8.6875 -1.75 C-7.51767578 -1.89695312 -7.51767578 -1.89695312 -6.32421875 -2.046875 C-3.69866432 -1.99392264 -2.23526243 -1.32990442 0 0 Z " fill="#DFDFDF" transform="translate(30,764)"/>
<path d="M0 0 C1.65 0.33 3.3 0.66 5 1 C4.67 2.32 4.34 3.64 4 5 C2.35 4.67 0.7 4.34 -1 4 C-0.67 2.68 -0.34 1.36 0 0 Z " fill="#CFCFCF" transform="translate(22,954)"/>
<path d="M0 0 C1.65 0.33 3.3 0.66 5 1 C4.67 2.32 4.34 3.64 4 5 C2.35 4.67 0.7 4.34 -1 4 C-0.67 2.68 -0.34 1.36 0 0 Z " fill="#CDCDCD" transform="translate(22,901)"/>
<path d="M0 0 C0.99 0 1.98 0 3 0 C3.33 0.99 3.66 1.98 4 3 C4.66 2.34 5.32 1.68 6 1 C6 3.31 6 5.62 6 8 C2.83884224 6.63016497 2.0072908 6.0109362 0 3 C0 2.01 0 1.02 0 0 Z " fill="#686868" transform="translate(16,834)"/>
<path d="M0 0 C0 1.32 0 2.64 0 4 C-2.97 3.505 -2.97 3.505 -6 3 C-6 2.34 -6 1.68 -6 1 C-6.66 0.67 -7.32 0.34 -8 0 C-4.71023192 -1.09658936 -3.28696233 -0.79953138 0 0 Z " fill="#929292" transform="translate(23,977)"/>
<path d="M0 0 C3.48670834 1.1094072 6.77484237 2.26337666 10 4 C10 4.66 10 5.32 10 6 C5.87248551 5.39301257 2.6678852 3.96189209 -1 2 C-0.67 1.34 -0.34 0.68 0 0 Z " fill="#565656" transform="translate(19,795)"/>
<path d="M0 0 C0.33 0.99 0.66 1.98 1 3 C0.01 3.33 -0.98 3.66 -2 4 C-2 3.34 -2 2.68 -2 2 C-3.32 2.33 -4.64 2.66 -6 3 C-6 2.34 -6 1.68 -6 1 C-6.99 1.33 -7.98 1.66 -9 2 C-9 1.34 -9 0.68 -9 0 C-5.93109813 -1.53445094 -3.29905734 -0.54984289 0 0 Z " fill="#E1E1E1" transform="translate(27,853)"/>
<path d="M0 0 C1.10408203 0.13921875 1.10408203 0.13921875 2.23046875 0.28125 C1.52921875 0.8175 0.82796875 1.35375 0.10546875 1.90625 C-3.07368754 4.53250954 -5.88855325 7.33327251 -8.76953125 10.28125 C-9.42953125 9.95125 -10.08953125 9.62125 -10.76953125 9.28125 C-9.55843211 7.76662478 -8.32489057 6.26992438 -7.08203125 4.78125 C-6.39753906 3.9459375 -5.71304687 3.110625 -5.0078125 2.25 C-2.76953125 0.28125 -2.76953125 0.28125 0 0 Z " fill="#D6D6D6" transform="translate(296.76953125,213.71875)"/>
<path d="M0 0 C1.32 0.33 2.64 0.66 4 1 C3.67 3.31 3.34 5.62 3 8 C2.34 8 1.68 8 1 8 C0.67 5.36 0.34 2.72 0 0 Z " fill="#E7E7E7" transform="translate(28,929)"/>
<path d="M0 0 C0.99 0 1.98 0 3 0 C3 0.66 3 1.32 3 2 C3.66 2 4.32 2 5 2 C5.33 1.34 5.66 0.68 6 0 C5.67 1.65 5.34 3.3 5 5 C3.35 4.67 1.7 4.34 0 4 C0 2.68 0 1.36 0 0 Z " fill="#CECECE" transform="translate(21,890)"/>
<path d="M0 0 C3.68754757 0.49831724 5.60490662 1.10067643 8 4 C5.36 4 2.72 4 0 4 C0 2.68 0 1.36 0 0 Z " fill="#F0F0F0" transform="translate(19,798)"/>
<path d="M0 0 C1.65 0 3.3 0 5 0 C4.67 1.98 4.34 3.96 4 6 C2.68 5.34 1.36 4.68 0 4 C0 2.68 0 1.36 0 0 Z " fill="#929292" transform="translate(19,767)"/>
<path d="M0 0 C0 1.32 0 2.64 0 4 C0.99 4.33 1.98 4.66 3 5 C-0.68266103 4.40049704 -4.34543185 3.75241109 -8 3 C-3.5 0 -3.5 0 0 0 Z " fill="#242424" transform="translate(793,451)"/>
<path d="M0 0 C1.98 0 3.96 0 6 0 C5.67 1.32 5.34 2.64 5 4 C3.35 3.67 1.7 3.34 0 3 C0 2.01 0 1.02 0 0 Z " fill="#D2D2D2" transform="translate(21,966)"/>
<path d="M0 0 C0.66 0 1.32 0 2 0 C2 0.99 2 1.98 2 3 C3.32 3.33 4.64 3.66 6 4 C4.68 4 3.36 4 2 4 C2 4.66 2 5.32 2 6 C1.34 6 0.68 6 0 6 C0 5.34 0 4.68 0 4 C-0.99 4 -1.98 4 -3 4 C-3 3.34 -3 2.68 -3 2 C-2.01 2 -1.02 2 0 2 C0 1.34 0 0.68 0 0 Z " fill="#494949" transform="translate(19,909)"/>
<path d="M0 0 C0.99 0.33 1.98 0.66 3 1 C2.34 1.66 1.68 2.32 1 3 C0.83318891 6.08347826 0.83318891 6.08347826 1 9 C0.01 8.34 -0.98 7.68 -2 7 C-2.3125 4.5 -2.3125 4.5 -2 2 C-1.34 1.34 -0.68 0.68 0 0 Z " fill="#5C5C5C" transform="translate(21,899)"/>
<path d="M0 0 C2.00720923 0.28674418 4.0085944 0.61866701 6 1 C5.34 2.65 4.68 4.3 4 6 C3.01 5.34 2.02 4.68 1 4 C1 3.34 1 2.68 1 2 C0.34 1.67 -0.32 1.34 -1 1 C-0.67 0.67 -0.34 0.34 0 0 Z " fill="#DCDCDC" transform="translate(17,843)"/>
<path d="M0 0 C0 3.66184524 -0.919642 5.02806 -3 8 C-5.1875 9.8125 -5.1875 9.8125 -7 11 C-5.5140084 6.40693504 -3.14985318 3.56430755 0 0 Z " fill="#303030" transform="translate(761,662)"/>
<path d="M0 0 C1.9375 0.3125 1.9375 0.3125 4 1 C4.33 1.99 4.66 2.98 5 4 C3.02 4 1.04 4 -1 4 C-0.67 2.68 -0.34 1.36 0 0 Z " fill="#D5D5D5" transform="translate(22,943)"/>
<path d="M0 0 C0.66 0 1.32 0 2 0 C2 0.99 2 1.98 2 3 C1.34 3 0.68 3 0 3 C-0.33 6.63 -0.66 10.26 -1 14 C-1.33 14 -1.66 14 -2 14 C-2.1799928 8.78020872 -1.97094808 4.92737019 0 0 Z " fill="#EDEDED" transform="translate(16,908)"/>
<path d="M0 0 C4.75 0.75 4.75 0.75 7 3 C7 3.66 7 4.32 7 5 C4.0625 4.1875 4.0625 4.1875 1 3 C0.67 2.01 0.34 1.02 0 0 Z " fill="#F4F4F4" transform="translate(21,790)"/>
<path d="M0 0 C0.94875 0.165 1.8975 0.33 2.875 0.5 C5.80168901 1.0526635 5.80168901 1.0526635 8 1 C7.67 1.99 7.34 2.98 7 4 C5.02 4 3.04 4 1 4 C0.67 2.68 0.34 1.36 0 0 Z " fill="#4E4E4E" transform="translate(20,957)"/>
<path d="M0 0 C0.66 0.66 1.32 1.32 2 2 C4.06874034 2.6425235 4.06874034 2.6425235 6 3 C6 3.66 6 4.32 6 5 C4.02 5.66 2.04 6.32 0 7 C0 4.69 0 2.38 0 0 Z " fill="#DFDFDF" transform="translate(19,894)"/>
<path d="M0 0 C1.32 0 2.64 0 4 0 C4 1.65 4 3.3 4 5 C3.01 5 2.02 5 1 5 C0.34 3.68 -0.32 2.36 -1 1 C-0.67 0.67 -0.34 0.34 0 0 Z " fill="#939393" transform="translate(17,776)"/>
<path d="M0 0 C1.32 0.66 2.64 1.32 4 2 C3.67 2.99 3.34 3.98 3 5 C1.35 4.67 -0.3 4.34 -2 4 C-1.34 2.68 -0.68 1.36 0 0 Z " fill="#DADADA" transform="translate(20,819)"/>
<path d="M0 0 C0.66 0 1.32 0 2 0 C2.66 0.99 3.32 1.98 4 3 C4.66 2.34 5.32 1.68 6 1 C6 2.32 6 3.64 6 5 C5.34 5 4.68 5 4 5 C3.67 5.66 3.34 6.32 3 7 C2.01 4.69 1.02 2.38 0 0 Z " fill="#606060" transform="translate(16,812)"/>
<path d="M0 0 C0.99 0.33 1.98 0.66 3 1 C2.67 2.32 2.34 3.64 2 5 C1.01 5 0.02 5 -1 5 C-0.67 3.35 -0.34 1.7 0 0 Z " fill="#CECECE" transform="translate(24,846)"/>
<path d="M0 0 C0.99 0.33 1.98 0.66 3 1 C2.67 2.32 2.34 3.64 2 5 C1.01 5 0.02 5 -1 5 C-0.67 3.35 -0.34 1.7 0 0 Z " fill="#CECECE" transform="translate(24,835)"/>
<path d="M0 0 C0.99 0.33 1.98 0.66 3 1 C2.67 2.32 2.34 3.64 2 5 C1.01 5 0.02 5 -1 5 C-0.67 3.35 -0.34 1.7 0 0 Z " fill="#CECECE" transform="translate(24,813)"/>
<path d="M0 0 C0.66 0.33 1.32 0.66 2 1 C1.67 2.32 1.34 3.64 1 5 C-0.65 5.33 -2.3 5.66 -4 6 C-4 5.34 -4 4.68 -4 4 C-3.01 3.67 -2.02 3.34 -1 3 C-0.67 2.01 -0.34 1.02 0 0 Z " fill="#4D4D4D" transform="translate(27,778)"/>
<path d="M0 0 C0.66 0.33 1.32 0.66 2 1 C-0.31 3.31 -2.62 5.62 -5 8 C-5 5 -5 5 -2.5 2.3125 C-1.675 1.549375 -0.85 0.78625 0 0 Z " fill="#2B2B2B" transform="translate(465,387)"/>
</svg>
